# xmcd CD database file
#
# Track frame offsets:
#	150
#	26796
#	40677
#	58619
#	73402
#	90193
#	106969
#	129389
#	143919
#	160661
#
# Disc length: 2401 seconds
#
# Revision: 0
# Processed by: cddbd v1.5.2PL0 Copyright (c) Steve Scherf et al.
# Submitted via: CDex 1.70beta2
#
DISCID=81095f0a
DTITLE=Les Gendarmes du Swing  - Live on KCSB
DYEAR=2005
DGENRE=Jazz
TTITLE0=01 Swing '39
TTITLE1=02 Swing '48
TTITLE2=03 Douce Ambiance
TTITLE3=04 Shine
TTITLE4=05 Miserlou
TTITLE5=06 Dark Eyes
TTITLE6=07 Nuages
TTITLE7=08 Viper's Dream
TTITLE8=09 Honeysuckle Rose
TTITLE9=10 Coquette
EXTD=YEAR: 2005
EXTT0=
EXTT1=
EXTT2=
EXTT3=
EXTT4=
EXTT5=
EXTT6=
EXTT7=
EXTT8=
EXTT9=
PLAYORDER=
